<?xml version="1.0" encoding="UTF-8"?>
<svg width="2048" height="2048" viewBox="0 0 2048 2048" xmlns="http://www.w3.org/2000/svg" version="1.1" shape-rendering="geometricPrecision" text-rendering="optimizeLegibility">
  <defs>
    <radialGradient id="bgGrad" cx="50%" cy="40%" r="75%">
      <stop offset="0%" stop-color="#0b2a4a"/>
      <stop offset="55%" stop-color="#081e36"/>
      <stop offset="100%" stop-color="#020912"/>
    </radialGradient>

    <linearGradient id="gradBlue" x1="0" y1="0" x2="1" y2="1">
      <stop offset="0%" stop-color="#00e5ff"/>
      <stop offset="100%" stop-color="#0066ff"/>
    </linearGradient>
    <linearGradient id="gradOrange" x1="0" y1="0" x2="1" y2="1">
      <stop offset="0%" stop-color="#ffb703"/>
      <stop offset="100%" stop-color="#ff3b00"/>
    </linearGradient>

    <linearGradient id="titleOrange" x1="0" y1="0" x2="0" y2="1">
      <stop offset="0%" stop-color="#ffd166"/>
      <stop offset="100%" stop-color="#ff7f11"/>
    </linearGradient>
    <linearGradient id="titleBlue" x1="0" y1="0" x2="0" y2="1">
      <stop offset="0%" stop-color="#7ad7ff"/>
      <stop offset="100%" stop-color="#1a73ff"/>
    </linearGradient>

    <linearGradient id="brickHighlight" x1="0" y1="0" x2="0" y2="1">
      <stop offset="0%" stop-color="#ffffff" stop-opacity="0.55"/>
      <stop offset="35%" stop-color="#ffffff" stop-opacity="0.10"/>
      <stop offset="100%" stop-color="#ffffff" stop-opacity="0"/>
    </linearGradient>

    <filter id="glowBlue" x="-50%" y="-50%" width="200%" height="200%">
      <feGaussianBlur in="SourceGraphic" stdDeviation="8" result="blur"/>
      <feMerge>
        <feMergeNode in="blur"/>
        <feMergeNode in="SourceGraphic"/>
      </feMerge>
    </filter>

    <filter id="glowOrange" x="-50%" y="-50%" width="200%" height="200%">
      <feGaussianBlur in="SourceGraphic" stdDeviation="7" result="blur"/>
      <feMerge>
        <feMergeNode in="blur"/>
        <feMergeNode in="SourceGraphic"/>
      </feMerge>
    </filter>

    <filter id="softShadow" x="-30%" y="-30%" width="160%" height="160%">
      <feOffset dx="0" dy="8" in="SourceAlpha" result="off"/>
      <feGaussianBlur in="off" stdDeviation="10" result="blur"/>
      <feColorMatrix in="blur" type="matrix" values="0 0 0 0 0  0 0 0 0 0  0 0 0 0 0  0 0 0 .55 0" result="shadow"/>
      <feMerge>
        <feMergeNode in="shadow"/>
        <feMergeNode in="SourceGraphic"/>
      </feMerge>
    </filter>

    <radialGradient id="vignette" cx="50%" cy="50%" r="70%">
      <stop offset="60%" stop-color="#000000" stop-opacity="0"/>
      <stop offset="100%" stop-color="#000000" stop-opacity="0.35"/>
    </radialGradient>

    <style>
      .titleText {
        font-family: "Impact","Arial Black","Russo One","Audiowide","Orbitron","Helvetica Neue",Arial,sans-serif;
        letter-spacing: 0.04em;
      }
      .center {
        text-anchor: middle;
        dominant-baseline: middle;
      }
    </style>
  </defs>

  <rect x="0" y="0" width="2048" height="2048" fill="url(#bgGrad)"/>
  <rect x="0" y="0" width="2048" height="2048" fill="url(#vignette)"/>

  <g opacity="0.18" filter="url(#glowBlue)">
    <rect x="-300" y="200" width="2600" height="14" transform="rotate(-20 0 0)" fill="url(#gradBlue)"/>
    <rect x="-260" y="290" width="2600" height="10" transform="rotate(-20 0 0)" fill="url(#gradOrange)" opacity="0.7"/>
    <rect x="-280" y="380" width="2600" height="8" transform="rotate(-20 0 0)" fill="url(#gradBlue)" opacity="0.65"/>
  </g>

  <g transform="translate(0,-10)">
    <text x="1024" y="1040" class="titleText center" font-size="180" fill="#001b44" opacity="0.8" stroke="#001235" stroke-width="14">Arkanoid</text>
    <text x="1024" y="1160" class="titleText center" font-size="130" fill="#1a1633" opacity="0.8" stroke="#001235" stroke-width="12">pro Kubu</text>
  </g>

  <g filter="url(#glowOrange)">
    <text x="1024" y="1030" class="titleText center" font-size="180" fill="url(#titleOrange)" stroke="url(#gradBlue)" stroke-width="8">Arkanoid</text>
  </g>
  <g filter="url(#glowBlue)">
    <text x="1024" y="1150" class="titleText center" font-size="130" fill="url(#titleBlue)" stroke="url(#gradOrange)" stroke-width="7">pro Kubu</text>
  </g>

  <g transform="translate(0,1380)" opacity="0.12">
    <rect x="0" y="0" width="2048" height="500" fill="none" stroke="none"/>
    <g stroke="#36c2ff">
      <line x1="0" y1="0" x2="2048" y2="0" stroke-width="2"/>
      <line x1="0" y1="60" x2="2048" y2="60" stroke-width="2"/>
      <line x1="0" y1="120" x2="2048" y2="120" stroke-width="2"/>
      <line x1="0" y1="180" x2="2048" y2="180" stroke-width="2"/>
      <line x1="0" y1="240" x2="2048" y2="240" stroke-width="2"/>
      <line x1="0" y1="300" x2="2048" y2="300" stroke-width="2"/>
      <line x1="0" y1="360" x2="2048" y2="360" stroke-width="2"/>
      <line x1="0" y1="420" x2="2048" y2="420" stroke-width="2"/>
      <line x1="0" y1="480" x2="2048" y2="480" stroke-width="2"/>
    </g>
    <g stroke="#36c2ff">
      <line x1="128" y1="0" x2="128" y2="500" stroke-width="2"/>
      <line x1="256" y1="0" x2="256" y2="500" stroke-width="2"/>
      <line x1="384" y1="0" x2="384" y2="500" stroke-width="2"/>
      <line x1="512" y1="0" x2="512" y2="500" stroke-width="2"/>
      <line x1="640" y1="0" x2="640" y2="500" stroke-width="2"/>
      <line x1="768" y1="0" x2="768" y2="500" stroke-width="2"/>
      <line x1="896" y1="0" x2="896" y2="500" stroke-width="2"/>
      <line x1="1024" y1="0" x2="1024" y2="500" stroke-width="2"/>
      <line x1="1152" y1="0" x2="1152" y2="500" stroke-width="2"/>
      <line x1="1280" y1="0" x2="1280" y2="500" stroke-width="2"/>
      <line x1="1408" y1="0" x2="1408" y2="500" stroke-width="2"/>
      <line x1="1536" y1="0" x2="1536" y2="500" stroke-width="2"/>
      <line x1="1664" y1="0" x2="1664" y2="500" stroke-width="2"/>
      <line x1="1792" y1="0" x2="1792" y2="500" stroke-width="2"/>
      <line x1="1920" y1="0" x2="1920" y2="500" stroke-width="2"/>
    </g>
  </g>

  <g transform="translate(1768,1768)" opacity="0.3">
    <defs>
      <linearGradient id="kfsRing" x1="0" y1="0" x2="1" y2="1">
        <stop offset="0%" stop-color="#00d4ff"/>
        <stop offset="100%" stop-color="#ff7f11"/>
      </linearGradient>
    </defs>
    <circle cx="0" cy="0" r="120" fill="none" stroke="url(#kfsRing)" stroke-width="8" filter="url(#glowBlue)"/>
    <circle cx="0" cy="0" r="100" fill="rgba(255,255,255,0.02)"/>
    <g font-family="Impact, Arial Black, sans-serif" text-anchor="middle" dominant-baseline="middle">
      <text x="0" y="18" font-size="110" fill="url(#titleBlue)" stroke="url(#gradOrange)" stroke-width="6" filter="url(#glowBlue)">KFS</text>
    </g>
  </g>
</svg>
